<svg version="1.1" xmlns="http://www.w3.org/2000/svg" viewBox="0 0 748.9127604166679 827.487630208333" width="2246.7382812500036" height="2482.462890624999">
  <!-- svg-source:excalidraw -->
  
  <defs>
    <style>
      @font-face {
        font-family: "Virgil";
        src: url("https://excalidraw.com/Virgil.woff2");
      }
      @font-face {
        font-family: "Cascadia";
        src: url("https://excalidraw.com/Cascadia.woff2");
      }
    </style>
  </defs>
  <g stroke-linecap="round" transform="translate(10 72.05924479166652) rotate(0 173.04622395833348 173.04622395833348)"><path d="M346.09 173.05 C346.09 177.36, 345.93 181.68, 345.61 185.98 C345.29 190.28, 344.8 194.57, 344.16 198.84 C343.52 203.1, 342.71 207.35, 341.75 211.55 C340.79 215.76, 339.68 219.93, 338.4 224.05 C337.13 228.17, 335.71 232.25, 334.13 236.27 C332.56 240.28, 330.83 244.24, 328.96 248.13 C327.09 252.01, 325.06 255.84, 322.91 259.57 C320.75 263.3, 318.45 266.97, 316.02 270.53 C313.6 274.09, 311.03 277.57, 308.34 280.94 C305.65 284.31, 302.83 287.59, 299.9 290.75 C296.97 293.91, 293.91 296.97, 290.75 299.9 C287.59 302.83, 284.31 305.65, 280.94 308.34 C277.57 311.03, 274.09 313.6, 270.53 316.02 C266.97 318.45, 263.3 320.75, 259.57 322.91 C255.84 325.06, 252.01 327.09, 248.13 328.96 C244.24 330.83, 240.28 332.56, 236.27 334.13 C232.25 335.71, 228.17 337.13, 224.05 338.4 C219.93 339.68, 215.76 340.79, 211.55 341.75 C207.35 342.71, 203.1 343.52, 198.84 344.16 C194.57 344.8, 190.28 345.29, 185.98 345.61 C181.68 345.93, 177.36 346.09, 173.05 346.09 C168.74 346.09, 164.41 345.93, 160.11 345.61 C155.82 345.29, 151.52 344.8, 147.26 344.16 C142.99 343.52, 138.74 342.71, 134.54 341.75 C130.34 340.79, 126.16 339.68, 122.04 338.4 C117.92 337.13, 113.84 335.71, 109.83 334.13 C105.81 332.56, 101.85 330.83, 97.96 328.96 C94.08 327.09, 90.26 325.06, 86.52 322.91 C82.79 320.75, 79.13 318.45, 75.57 316.02 C72 313.6, 68.52 311.03, 65.15 308.34 C61.78 305.65, 58.5 302.83, 55.34 299.9 C52.19 296.97, 49.13 293.91, 46.19 290.75 C43.26 287.59, 40.44 284.31, 37.75 280.94 C35.07 277.57, 32.5 274.09, 30.07 270.53 C27.64 266.97, 25.34 263.3, 23.18 259.57 C21.03 255.84, 19.01 252.01, 17.14 248.13 C15.27 244.24, 13.54 240.28, 11.96 236.27 C10.39 232.25, 8.96 228.17, 7.69 224.05 C6.42 219.93, 5.3 215.76, 4.34 211.55 C3.38 207.35, 2.58 203.1, 1.93 198.84 C1.29 194.57, 0.81 190.28, 0.48 185.98 C0.16 181.68, 0 177.36, 0 173.05 C0 168.74, 0.16 164.41, 0.48 160.11 C0.81 155.82, 1.29 151.52, 1.93 147.26 C2.58 142.99, 3.38 138.74, 4.34 134.54 C5.3 130.34, 6.42 126.16, 7.69 122.04 C8.96 117.92, 10.39 113.84, 11.96 109.83 C13.54 105.81, 15.27 101.85, 17.14 97.96 C19.01 94.08, 21.03 90.26, 23.18 86.52 C25.34 82.79, 27.64 79.13, 30.07 75.57 C32.5 72, 35.07 68.52, 37.75 65.15 C40.44 61.78, 43.26 58.5, 46.19 55.34 C49.13 52.19, 52.19 49.13, 55.34 46.19 C58.5 43.26, 61.78 40.44, 65.15 37.75 C68.52 35.07, 72 32.5, 75.57 30.07 C79.13 27.64, 82.79 25.34, 86.52 23.18 C90.26 21.03, 94.08 19.01, 97.96 17.14 C101.85 15.27, 105.81 13.54, 109.83 11.96 C113.84 10.39, 117.92 8.96, 122.04 7.69 C126.16 6.42, 130.34 5.3, 134.54 4.34 C138.74 3.38, 142.99 2.58, 147.26 1.93 C151.52 1.29, 155.82 0.81, 160.11 0.48 C164.41 0.16, 168.74 0, 173.05 0 C177.36 0, 181.68 0.16, 185.98 0.48 C190.28 0.81, 194.57 1.29, 198.84 1.93 C203.1 2.58, 207.35 3.38, 211.55 4.34 C215.76 5.3, 219.93 6.42, 224.05 7.69 C228.17 8.96, 232.25 10.39, 236.27 11.96 C240.28 13.54, 244.24 15.27, 248.13 17.14 C252.01 19.01, 255.84 21.03, 259.57 23.18 C263.3 25.34, 266.97 27.64, 270.53 30.07 C274.09 32.5, 277.57 35.07, 280.94 37.75 C284.31 40.44, 287.59 43.26, 290.75 46.19 C293.91 49.13, 296.97 52.19, 299.9 55.34 C302.83 58.5, 305.65 61.78, 308.34 65.15 C311.03 68.52, 313.6 72, 316.02 75.57 C318.45 79.13, 320.75 82.79, 322.91 86.52 C325.06 90.26, 327.09 94.08, 328.96 97.96 C330.83 101.85, 332.56 105.81, 334.13 109.83 C335.71 113.84, 337.13 117.92, 338.4 122.04 C339.68 126.16, 340.79 130.34, 341.75 134.54 C342.71 138.74, 343.52 142.99, 344.16 147.26 C344.8 151.52, 345.29 155.82, 345.61 160.11 C345.93 164.41, 346.09 168.74, 346.09 173.05" stroke="#000000" stroke-width="4" fill="none"></path></g><g transform="translate(168.35807291665878 113.8509114583353) rotate(0 12.5 22.5)"><text x="12.5" y="32" font-family="Virgil, Segoe UI Emoji" font-size="36px" fill="#000000" text-anchor="middle" style="white-space: pre;" direction="ltr">A</text></g><g transform="translate(74.06510416665878 210.9173177083353) rotate(0 13.5 22.5)"><text x="13.5" y="32" font-family="Virgil, Segoe UI Emoji" font-size="36px" fill="#000000" text-anchor="middle" style="white-space: pre;" direction="ltr">B</text></g><g transform="translate(172.27604166665878 219.56966145833485) rotate(0 12 22.5)"><text x="12" y="32" font-family="Virgil, Segoe UI Emoji" font-size="36px" fill="#000000" text-anchor="middle" style="white-space: pre;" direction="ltr">C</text></g><g transform="translate(270.0260416666588 218.94075520833485) rotate(0 14.5 22.5)"><text x="14.5" y="32" font-family="Virgil, Segoe UI Emoji" font-size="36px" fill="#000000" text-anchor="middle" style="white-space: pre;" direction="ltr">D</text></g><g transform="translate(172.79166666665878 304.40169270833485) rotate(0 12.5 22.5)"><text x="12.5" y="32" font-family="Virgil, Segoe UI Emoji" font-size="36px" fill="#000000" text-anchor="middle" style="white-space: pre;" direction="ltr">E</text></g><g stroke-linecap="round" transform="translate(392.8203125 74.18033854166652) rotate(0 173.04622395833348 173.04622395833348)"><path d="M346.09 173.05 C346.09 177.36, 345.93 181.68, 345.61 185.98 C345.29 190.28, 344.8 194.57, 344.16 198.84 C343.52 203.1, 342.71 207.35, 341.75 211.55 C340.79 215.76, 339.68 219.93, 338.4 224.05 C337.13 228.17, 335.71 232.25, 334.13 236.27 C332.56 240.28, 330.83 244.24, 328.96 248.13 C327.09 252.01, 325.06 255.84, 322.91 259.57 C320.75 263.3, 318.45 266.97, 316.02 270.53 C313.6 274.09, 311.03 277.57, 308.34 280.94 C305.65 284.31, 302.83 287.59, 299.9 290.75 C296.97 293.91, 293.91 296.97, 290.75 299.9 C287.59 302.83, 284.31 305.65, 280.94 308.34 C277.57 311.03, 274.09 313.6, 270.53 316.02 C266.97 318.45, 263.3 320.75, 259.57 322.91 C255.84 325.06, 252.01 327.09, 248.13 328.96 C244.24 330.83, 240.28 332.56, 236.27 334.13 C232.25 335.71, 228.17 337.13, 224.05 338.4 C219.93 339.68, 215.76 340.79, 211.55 341.75 C207.35 342.71, 203.1 343.52, 198.84 344.16 C194.57 344.8, 190.28 345.29, 185.98 345.61 C181.68 345.93, 177.36 346.09, 173.05 346.09 C168.74 346.09, 164.41 345.93, 160.11 345.61 C155.82 345.29, 151.52 344.8, 147.26 344.16 C142.99 343.52, 138.74 342.71, 134.54 341.75 C130.34 340.79, 126.16 339.68, 122.04 338.4 C117.92 337.13, 113.84 335.71, 109.83 334.13 C105.81 332.56, 101.85 330.83, 97.96 328.96 C94.08 327.09, 90.26 325.06, 86.52 322.91 C82.79 320.75, 79.13 318.45, 75.57 316.02 C72 313.6, 68.52 311.03, 65.15 308.34 C61.78 305.65, 58.5 302.83, 55.34 299.9 C52.19 296.97, 49.13 293.91, 46.19 290.75 C43.26 287.59, 40.44 284.31, 37.75 280.94 C35.07 277.57, 32.5 274.09, 30.07 270.53 C27.64 266.97, 25.34 263.3, 23.18 259.57 C21.03 255.84, 19.01 252.01, 17.14 248.13 C15.27 244.24, 13.54 240.28, 11.96 236.27 C10.39 232.25, 8.96 228.17, 7.69 224.05 C6.42 219.93, 5.3 215.76, 4.34 211.55 C3.38 207.35, 2.58 203.1, 1.93 198.84 C1.29 194.57, 0.81 190.28, 0.48 185.98 C0.16 181.68, 0 177.36, 0 173.05 C0 168.74, 0.16 164.41, 0.48 160.11 C0.81 155.82, 1.29 151.52, 1.93 147.26 C2.58 142.99, 3.38 138.74, 4.34 134.54 C5.3 130.34, 6.42 126.16, 7.69 122.04 C8.96 117.92, 10.39 113.84, 11.96 109.83 C13.54 105.81, 15.27 101.85, 17.14 97.96 C19.01 94.08, 21.03 90.26, 23.18 86.52 C25.34 82.79, 27.64 79.13, 30.07 75.57 C32.5 72, 35.07 68.52, 37.75 65.15 C40.44 61.78, 43.26 58.5, 46.19 55.34 C49.13 52.19, 52.19 49.13, 55.34 46.19 C58.5 43.26, 61.78 40.44, 65.15 37.75 C68.52 35.07, 72 32.5, 75.57 30.07 C79.13 27.64, 82.79 25.34, 86.52 23.18 C90.26 21.03, 94.08 19.01, 97.96 17.14 C101.85 15.27, 105.81 13.54, 109.83 11.96 C113.84 10.39, 117.92 8.96, 122.04 7.69 C126.16 6.42, 130.34 5.3, 134.54 4.34 C138.74 3.38, 142.99 2.58, 147.26 1.93 C151.52 1.29, 155.82 0.81, 160.11 0.48 C164.41 0.16, 168.74 0, 173.05 0 C177.36 0, 181.68 0.16, 185.98 0.48 C190.28 0.81, 194.57 1.29, 198.84 1.93 C203.1 2.58, 207.35 3.38, 211.55 4.34 C215.76 5.3, 219.93 6.42, 224.05 7.69 C228.17 8.96, 232.25 10.39, 236.27 11.96 C240.28 13.54, 244.24 15.27, 248.13 17.14 C252.01 19.01, 255.84 21.03, 259.57 23.18 C263.3 25.34, 266.97 27.64, 270.53 30.07 C274.09 32.5, 277.57 35.07, 280.94 37.75 C284.31 40.44, 287.59 43.26, 290.75 46.19 C293.91 49.13, 296.97 52.19, 299.9 55.34 C302.83 58.5, 305.65 61.78, 308.34 65.15 C311.03 68.52, 313.6 72, 316.02 75.57 C318.45 79.13, 320.75 82.79, 322.91 86.52 C325.06 90.26, 327.09 94.08, 328.96 97.96 C330.83 101.85, 332.56 105.81, 334.13 109.83 C335.71 113.84, 337.13 117.92, 338.4 122.04 C339.68 126.16, 340.79 130.34, 341.75 134.54 C342.71 138.74, 343.52 142.99, 344.16 147.26 C344.8 151.52, 345.29 155.82, 345.61 160.11 C345.93 164.41, 346.09 168.74, 346.09 173.05" stroke="#000000" stroke-width="4" fill="none"></path></g><g transform="translate(551.1783854166588 115.9720052083353) rotate(0 12.5 22.5)"><text x="12.5" y="32" font-family="Virgil, Segoe UI Emoji" font-size="36px" fill="#000000" text-anchor="middle" style="white-space: pre;" direction="ltr">A</text></g><g transform="translate(456.8854166666588 213.0384114583353) rotate(0 13.5 22.5)"><text x="13.5" y="32" font-family="Virgil, Segoe UI Emoji" font-size="36px" fill="#000000" text-anchor="middle" style="white-space: pre;" direction="ltr">B</text></g><g transform="translate(555.0963541666588 221.69075520833485) rotate(0 12 22.5)"><text x="12" y="32" font-family="Virgil, Segoe UI Emoji" font-size="36px" fill="#000000" text-anchor="middle" style="white-space: pre;" direction="ltr">C</text></g><g transform="translate(656.3463541666588 221.06184895833485) rotate(0 11 22.5)"><text x="11" y="32" font-family="Virgil, Segoe UI Emoji" font-size="36px" fill="#000000" text-anchor="middle" style="white-space: pre;" direction="ltr">F</text></g><g transform="translate(553.6119791666588 306.52278645833485) rotate(0 14.5 22.5)"><text x="14.5" y="32" font-family="Virgil, Segoe UI Emoji" font-size="36px" fill="#000000" text-anchor="middle" style="white-space: pre;" direction="ltr">G</text></g><g stroke-linecap="round" transform="translate(181.24045138888914 471.39518229166606) rotate(0 173.0462239583337 173.04622395833348)"><path d="M346.09 173.05 C346.09 177.36, 345.93 181.68, 345.61 185.98 C345.29 190.28, 344.8 194.57, 344.16 198.84 C343.52 203.1, 342.71 207.35, 341.75 211.55 C340.79 215.76, 339.68 219.93, 338.4 224.05 C337.13 228.17, 335.71 232.25, 334.13 236.27 C332.56 240.28, 330.83 244.24, 328.96 248.13 C327.09 252.01, 325.06 255.84, 322.91 259.57 C320.75 263.3, 318.45 266.97, 316.02 270.53 C313.6 274.09, 311.03 277.57, 308.34 280.94 C305.65 284.31, 302.83 287.59, 299.9 290.75 C296.97 293.91, 293.91 296.97, 290.75 299.9 C287.59 302.83, 284.31 305.65, 280.94 308.34 C277.57 311.03, 274.09 313.6, 270.53 316.02 C266.97 318.45, 263.3 320.75, 259.57 322.91 C255.84 325.06, 252.01 327.09, 248.13 328.96 C244.24 330.83, 240.28 332.56, 236.27 334.13 C232.25 335.71, 228.17 337.13, 224.05 338.4 C219.93 339.68, 215.76 340.79, 211.55 341.75 C207.35 342.71, 203.1 343.52, 198.84 344.16 C194.57 344.8, 190.28 345.29, 185.98 345.61 C181.68 345.93, 177.36 346.09, 173.05 346.09 C168.74 346.09, 164.41 345.93, 160.11 345.61 C155.82 345.29, 151.52 344.8, 147.26 344.16 C142.99 343.52, 138.74 342.71, 134.54 341.75 C130.34 340.79, 126.16 339.68, 122.04 338.4 C117.92 337.13, 113.84 335.71, 109.83 334.13 C105.81 332.56, 101.85 330.83, 97.96 328.96 C94.08 327.09, 90.26 325.06, 86.52 322.91 C82.79 320.75, 79.13 318.45, 75.57 316.02 C72 313.6, 68.52 311.03, 65.15 308.34 C61.78 305.65, 58.5 302.83, 55.34 299.9 C52.19 296.97, 49.13 293.91, 46.19 290.75 C43.26 287.59, 40.44 284.31, 37.75 280.94 C35.07 277.57, 32.5 274.09, 30.07 270.53 C27.64 266.97, 25.34 263.3, 23.18 259.57 C21.03 255.84, 19.01 252.01, 17.14 248.13 C15.27 244.24, 13.54 240.28, 11.96 236.27 C10.39 232.25, 8.96 228.17, 7.69 224.05 C6.42 219.93, 5.3 215.76, 4.34 211.55 C3.38 207.35, 2.58 203.1, 1.93 198.84 C1.29 194.57, 0.81 190.28, 0.48 185.98 C0.16 181.68, 0 177.36, 0 173.05 C0 168.74, 0.16 164.41, 0.48 160.11 C0.81 155.82, 1.29 151.52, 1.93 147.26 C2.58 142.99, 3.38 138.74, 4.34 134.54 C5.3 130.34, 6.42 126.16, 7.69 122.04 C8.96 117.92, 10.39 113.84, 11.96 109.83 C13.54 105.81, 15.27 101.85, 17.14 97.96 C19.01 94.08, 21.03 90.26, 23.18 86.52 C25.34 82.79, 27.64 79.13, 30.07 75.57 C32.5 72, 35.07 68.52, 37.75 65.15 C40.44 61.78, 43.26 58.5, 46.19 55.34 C49.13 52.19, 52.19 49.13, 55.34 46.19 C58.5 43.26, 61.78 40.44, 65.15 37.75 C68.52 35.07, 72 32.5, 75.57 30.07 C79.13 27.64, 82.79 25.34, 86.52 23.18 C90.26 21.03, 94.08 19.01, 97.96 17.14 C101.85 15.27, 105.81 13.54, 109.83 11.96 C113.84 10.39, 117.92 8.96, 122.04 7.69 C126.16 6.42, 130.34 5.3, 134.54 4.34 C138.74 3.38, 142.99 2.58, 147.26 1.93 C151.52 1.29, 155.82 0.81, 160.11 0.48 C164.41 0.16, 168.74 0, 173.05 0 C177.36 0, 181.68 0.16, 185.98 0.48 C190.28 0.81, 194.57 1.29, 198.84 1.93 C203.1 2.58, 207.35 3.38, 211.55 4.34 C215.76 5.3, 219.93 6.42, 224.05 7.69 C228.17 8.96, 232.25 10.39, 236.27 11.96 C240.28 13.54, 244.24 15.27, 248.13 17.14 C252.01 19.01, 255.84 21.03, 259.57 23.18 C263.3 25.34, 266.97 27.64, 270.53 30.07 C274.09 32.5, 277.57 35.07, 280.94 37.75 C284.31 40.44, 287.59 43.26, 290.75 46.19 C293.91 49.13, 296.97 52.19, 299.9 55.34 C302.83 58.5, 305.65 61.78, 308.34 65.15 C311.03 68.52, 313.6 72, 316.02 75.57 C318.45 79.13, 320.75 82.79, 322.91 86.52 C325.06 90.26, 327.09 94.08, 328.96 97.96 C330.83 101.85, 332.56 105.81, 334.13 109.83 C335.71 113.84, 337.13 117.92, 338.4 122.04 C339.68 126.16, 340.79 130.34, 341.75 134.54 C342.71 138.74, 343.52 142.99, 344.16 147.26 C344.8 151.52, 345.29 155.82, 345.61 160.11 C345.93 164.41, 346.09 168.74, 346.09 173.05" stroke="#000000" stroke-width="4" fill="none"></path></g><g transform="translate(249.25260416665878 615.3135850694457) rotate(0 12.5 22.5)"><text x="12.5" y="32" font-family="Virgil, Segoe UI Emoji" font-size="36px" fill="#000000" text-anchor="middle" style="white-space: pre;" direction="ltr">A</text></g><g transform="translate(345.75520833332575 617.3509114583348) rotate(0 13.5 22.5)"><text x="13.5" y="32" font-family="Virgil, Segoe UI Emoji" font-size="36px" fill="#000000" text-anchor="middle" style="white-space: pre;" direction="ltr">B</text></g><g transform="translate(443.12065972221353 614.75802951389) rotate(0 12 22.5)"><text x="12" y="32" font-family="Virgil, Segoe UI Emoji" font-size="36px" fill="#000000" text-anchor="middle" style="white-space: pre;" direction="ltr">C</text></g><g transform="translate(135.6043836805411 10) rotate(0 51 22.5)"><text x="51" y="32" font-family="Virgil, Segoe UI Emoji" font-size="36px" fill="#000000" text-anchor="middle" style="white-space: pre;" direction="ltr">Set X</text></g><g transform="translate(517.7154947916606 16.66666666666606) rotate(0 50 22.5)"><text x="50" y="32" font-family="Virgil, Segoe UI Emoji" font-size="36px" fill="#000000" text-anchor="middle" style="white-space: pre;" direction="ltr">Set Y</text></g><g transform="translate(235.3266059027701 414.44444444444434) rotate(0 123.5 22.5)"><text x="123.5" y="32" font-family="Virgil, Segoe UI Emoji" font-size="36px" fill="#000000" text-anchor="middle" style="white-space: pre;" direction="ltr">X Intersect Y</text></g></svg>